<svg width="195" height="257" viewBox="0 0 195 257" fill="none" xmlns="http://www.w3.org/2000/svg">
<rect x="2" y="2" width="191" height="253" rx="6" fill="#6F1690" fill-opacity="0.79" stroke="black" stroke-width="4"/>
<circle cx="37" cy="161" r="6" fill="white"/>
<circle cx="52" cy="161" r="2" fill="white"/>
<circle cx="162" cy="161" r="2" fill="white"/>
<line x1="52" y1="161" x2="162" y2="161" stroke="white" stroke-width="4"/>
<ellipse cx="128" cy="4.14035" rx="1.14035" ry="2" transform="rotate(90 128 4.14035)" fill="black"/>
<ellipse cx="128" cy="66.8601" rx="1.14035" ry="2" transform="rotate(90 128 66.8601)" fill="black"/>
<line x1="128" y1="4.14063" x2="128" y2="66.8599" stroke="black" stroke-width="4"/>
<ellipse cx="128.14" cy="66" rx="1.14035" ry="2" fill="black"/>
<ellipse cx="190.86" cy="66" rx="1.14035" ry="2" fill="black"/>
<line x1="128.141" y1="66" x2="190.86" y2="66" stroke="black" stroke-width="4"/>
<ellipse cx="128.569" cy="2.56991" rx="1.63428" ry="1.59409" transform="rotate(45 128.569 2.56991)" fill="black"/>
<ellipse cx="192.128" cy="66.1285" rx="1.63428" ry="1.59409" transform="rotate(45 192.128 66.1285)" fill="black"/>
<line x1="128.857" y1="2.28208" x2="192.415" y2="65.8406" stroke="black" stroke-width="4"/>
<circle cx="37" cy="193" r="6" fill="white"/>
<circle cx="52" cy="193" r="1.5" fill="white" stroke="white"/>
<circle cx="162" cy="193" r="1.5" fill="white" stroke="white"/>
<line x1="52" y1="193" x2="162" y2="193" stroke="white" stroke-width="4"/>
<circle cx="37" cy="224" r="6" fill="white"/>
<circle cx="52" cy="224" r="1.5" fill="white" stroke="white"/>
<circle cx="162" cy="224" r="1.5" fill="white" stroke="white"/>
<line x1="52" y1="224" x2="162" y2="224" stroke="white" stroke-width="4"/>
<mask id="path-23-inside-1_1022_2892" fill="white">
<path d="M87.3936 24.5829C89.86 22.2327 93.4088 21.4088 96.6582 22.4325C101.532 23.9683 104.966 28.3373 105.306 33.4364L105.409 34.9843C105.474 35.9607 105.451 36.941 105.338 37.913C104.562 44.6044 99.5638 49.9988 93.0146 51.3251C101.483 61.7758 107 75.4686 107 87.4921C107 110.83 86.2142 115.026 63.4043 115.026C40.5944 115.026 20 109.491 20 86.1532C20.0001 74.3554 25.2644 61.2936 33.416 51.2597C27.0149 49.8314 22.1575 44.5017 21.3936 37.913C21.2809 36.941 21.2562 35.9607 21.3213 34.9843L21.4248 33.4364C21.7647 28.3373 25.198 23.9683 30.0723 22.4325C33.3218 21.4087 36.8714 22.2327 39.3379 24.5829L41.1172 26.2782C43.1451 28.2105 44.9523 30.3631 46.5039 32.6952L49.8818 37.7734C54.1931 35.7025 58.7529 34.5273 63.4043 34.5273C68.003 34.5273 72.5194 35.7315 76.7998 37.8456L80.2275 32.6952C81.7791 30.3632 83.5854 28.2105 85.6133 26.2782L87.3936 24.5829Z"/>
</mask>
<path d="M87.3936 24.5829L92.9105 30.3763L92.9122 30.3747L87.3936 24.5829ZM96.6582 22.4325L99.0624 14.8023L99.0621 14.8022L96.6582 22.4325ZM105.306 33.4364L97.3234 33.9686L97.3235 33.9703L105.306 33.4364ZM105.409 34.9843L113.391 34.4522L113.391 34.4505L105.409 34.9843ZM105.338 37.913L113.285 38.8344L113.285 38.8342L105.338 37.913ZM93.0146 51.3251L91.4267 43.4843L78.4877 46.1048L86.7991 56.3617L93.0146 51.3251ZM107 87.4921L115 87.4921V87.4921H107ZM63.4043 115.026L63.4043 123.026H63.4043V115.026ZM20 86.1532L12 86.1532V86.1532H20ZM33.416 51.2597L39.6252 56.3041L47.7787 46.2678L35.1583 43.4517L33.416 51.2597ZM21.3936 37.913L13.4468 38.8342L13.4468 38.8344L21.3936 37.913ZM21.3213 34.9843L13.3391 34.4505L13.339 34.4522L21.3213 34.9843ZM21.4248 33.4364L29.407 33.9703L29.4071 33.9686L21.4248 33.4364ZM30.0723 22.4325L27.6683 14.8023L27.6681 14.8023L30.0723 22.4325ZM39.3379 24.5829L33.8192 30.3747L33.8194 30.3748L39.3379 24.5829ZM41.1172 26.2782L46.6359 20.4865L46.6357 20.4864L41.1172 26.2782ZM46.5039 32.6952L53.1648 28.2644L53.1645 28.2639L46.5039 32.6952ZM49.8818 37.7734L43.2209 42.2042L47.0742 47.9969L53.3456 44.9846L49.8818 37.7734ZM63.4043 34.5273V26.5273H63.4043L63.4043 34.5273ZM76.7998 37.8456L73.2571 45.0184L79.563 48.133L83.4597 42.278L76.7998 37.8456ZM80.2275 32.6952L86.8874 37.1276L86.8881 37.1266L80.2275 32.6952ZM85.6133 26.2782L80.0964 20.4848L80.0946 20.4865L85.6133 26.2782ZM87.3936 24.5829L92.9122 30.3747C93.2701 30.0337 93.7842 29.9147 94.2543 30.0628L96.6582 22.4325L99.0621 14.8022C93.0333 12.9029 86.45 14.4318 81.8749 18.7912L87.3936 24.5829ZM96.6582 22.4325L94.254 30.0627C95.9839 30.6078 97.2027 32.1587 97.3234 33.9686L105.306 33.4364L113.288 32.9043C112.729 24.5159 107.081 17.3289 99.0624 14.8023L96.6582 22.4325ZM105.306 33.4364L97.3235 33.9703L97.427 35.5181L105.409 34.9843L113.391 34.4505L113.288 32.9026L105.306 33.4364ZM105.409 34.9843L97.4269 35.5164C97.4598 36.0096 97.4477 36.5035 97.3911 36.9918L105.338 37.913L113.285 38.8342C113.453 37.3785 113.489 35.9117 113.391 34.4522L105.409 34.9843ZM105.338 37.913L97.3911 36.9916C97.0158 40.2288 94.5966 42.8423 91.4267 43.4843L93.0146 51.3251L94.6026 59.1659C104.531 57.1552 112.108 48.98 113.285 38.8344L105.338 37.913ZM93.0146 51.3251L86.7991 56.3617C94.354 65.685 99 77.6517 99 87.4921H107H115C115 73.2856 108.612 57.8666 99.2302 46.2885L93.0146 51.3251ZM107 87.4921L99 87.4921C99 92.1097 97.9848 95.2107 96.6185 97.3894C95.2499 99.5714 93.1875 101.372 90.2192 102.835C83.9409 105.929 74.6524 107.026 63.4043 107.026V115.026V123.026C74.9661 123.026 87.4754 122.025 97.2925 117.187C102.372 114.683 106.932 111.059 110.173 105.891C113.417 100.719 115 94.5435 115 87.4921L107 87.4921ZM63.4043 115.026L63.4043 107.026C52.3551 107.026 43.1451 105.633 36.9367 102.295C33.9738 100.702 31.8515 98.7496 30.4289 96.3856C29.0084 94.0249 28 90.7798 28 86.1532H20H12C12 93.1957 13.5659 99.3942 16.7196 104.635C19.8713 109.873 24.3232 113.68 29.3601 116.388C39.1514 121.652 51.6436 123.026 63.4043 123.026L63.4043 115.026ZM20 86.1532L28 86.1533C28.0001 76.5212 32.4065 65.1898 39.6252 56.3041L33.416 51.2597L27.2068 46.2153C18.1224 57.3975 12.0001 72.1897 12 86.1532L20 86.1532ZM33.416 51.2597L35.1583 43.4517C32.0598 42.7603 29.7098 40.178 29.3403 36.9916L21.3936 37.913L13.4468 38.8344C14.6052 48.8255 21.97 56.9024 31.6738 59.0677L33.416 51.2597ZM21.3936 37.913L29.3403 36.9918C29.2831 36.4982 29.271 36.0043 29.3036 35.5164L21.3213 34.9843L13.339 34.4522C13.2414 35.917 13.2786 37.3838 13.4468 38.8342L21.3936 37.913ZM21.3213 34.9843L29.3035 35.5181L29.407 33.9703L21.4248 33.4364L13.4426 32.9026L13.3391 34.4505L21.3213 34.9843ZM21.4248 33.4364L29.4071 33.9686C29.5277 32.1587 30.7466 30.6078 32.4764 30.0627L30.0723 22.4325L27.6681 14.8023C19.6495 17.3289 14.0017 24.5159 13.4425 32.9043L21.4248 33.4364ZM30.0723 22.4325L32.4763 30.0628C32.9467 29.9146 33.4615 30.0338 33.8192 30.3747L39.3379 24.5829L44.8566 18.7912C40.2812 14.4316 33.6968 12.9029 27.6683 14.8023L30.0723 22.4325ZM39.3379 24.5829L33.8194 30.3748L35.5987 32.0701L41.1172 26.2782L46.6357 20.4864L44.8564 18.791L39.3379 24.5829ZM41.1172 26.2782L35.5985 32.07C37.1969 33.593 38.621 35.2894 39.8433 37.1266L46.5039 32.6952L53.1645 28.2639C51.2836 25.4369 49.0933 22.8281 46.6359 20.4865L41.1172 26.2782ZM46.5039 32.6952L39.843 37.126L43.2209 42.2042L49.8818 37.7734L56.5428 33.3426L53.1648 28.2644L46.5039 32.6952ZM49.8818 37.7734L53.3456 44.9846C56.7384 43.355 60.12 42.5273 63.4043 42.5273L63.4043 34.5273L63.4043 26.5273C57.3857 26.5273 51.6478 28.0501 46.4181 30.5621L49.8818 37.7734ZM63.4043 34.5273V42.5273C66.5853 42.5273 69.8955 43.3581 73.2571 45.0184L76.7998 37.8456L80.3425 30.6728C75.1434 28.1049 69.4207 26.5273 63.4043 26.5273V34.5273ZM76.7998 37.8456L83.4597 42.278L86.8874 37.1276L80.2275 32.6952L73.5676 28.2629L70.1399 33.4133L76.7998 37.8456ZM80.2275 32.6952L86.8881 37.1266C88.1112 35.2882 89.5347 33.5919 91.1319 32.07L85.6133 26.2782L80.0946 20.4865C77.6361 22.8291 75.447 25.4381 73.567 28.2639L80.2275 32.6952ZM85.6133 26.2782L91.1302 32.0717L92.9105 30.3763L87.3936 24.5829L81.8766 18.7895L80.0964 20.4848L85.6133 26.2782Z" fill="white" mask="url(#path-23-inside-1_1022_2892)"/>
<path d="M130 6L188 64H130V6Z" fill="#5F2E93"/>
</svg>
